<?xml version="1.0" standalone="no"?>
<!DOCTYPE svg PUBLIC "-//W3C//DTD SVG 20010904//EN"
 "http://www.w3.org/TR/2001/REC-SVG-20010904/DTD/svg10.dtd">
<svg version="1.0" xmlns="http://www.w3.org/2000/svg"
 width="1280.000000pt" height="1280.000000pt" viewBox="0 0 1280.000000 1280.000000"
 preserveAspectRatio="xMidYMid meet">
<g transform="translate(0.000000,1280.000000) scale(0.100000,-0.100000)"
fill="#000000" stroke="none">
<path d="M4750 10562 c0 -1727 -3 -2241 -12 -2250 -9 -9 -550 -12 -2375 -12
l-2363 0 0 -1750 0 -1750 2363 0 c1825 0 2366 -3 2375 -12 9 -9 12 -556 12
-2400 l0 -2388 1750 0 1750 0 0 2388 c0 1844 3 2391 12 2400 9 9 528 12 2275
12 l2263 0 0 1750 0 1750 -2263 0 c-1747 0 -2266 3 -2275 12 -9 9 -12 523 -12
2250 l0 2238 -1750 0 -1750 0 0 -2238z"/>
</g>
</svg>
